<?xml version="1.0" encoding="UTF-8"?>
<svg id="Layer_1" data-name="Layer 1" xmlns="http://www.w3.org/2000/svg" viewBox="0 0 471.07 163.96">
  <defs>
    <style>
      .cls-1 {
        fill: #cfaa90;
      }
    </style>
  </defs>
  <path class="cls-1" d="M13.29,3.6l10.99,45.87c1.86-5.46,3.68-10.78,5.45-15.94,1.76-5.16,3.58-10.48,5.45-15.94L41.27,0l16.99,49.46c1.73-7.66,3.56-15.35,5.5-23.08,1.93-7.73,3.76-15.32,5.5-22.78h13.29l-16.79,70.85h-12.49l-11.99-34.87c-1.93,5.73-3.93,11.56-6,17.49-2.07,5.93-4.06,11.73-6,17.39h-12.49L0,3.6H13.29Z"/>
  <path class="cls-1" d="M133.4,16.09h-23.68v16.69h23.08v11.99h-23.08v16.69h26.48v12.99h-39.27V3.2h36.47v12.89Z"/>
  <path class="cls-1" d="M188.15,23.38c-2.6-3-4.73-5.23-6.4-6.69-.93-.73-2.2-1.33-3.8-1.8-1.6-.47-3.46-.7-5.6-.7-1.4,0-2.71,.15-3.95,.45-1.23,.3-2.32,.73-3.25,1.3-.93,.57-1.68,1.28-2.25,2.15-.57,.87-.85,1.83-.85,2.9,0,2.13,2.63,4.5,7.89,7.09,3.06,1.53,5.86,3.03,8.39,4.5,2.53,1.47,4.9,3.03,7.09,4.7,4.8,3.6,7.19,8.69,7.19,15.29,0,3.26-.62,6.31-1.85,9.14-1.23,2.83-2.88,5.28-4.95,7.34s-4.5,3.68-7.29,4.85-5.73,1.75-8.79,1.75c-2.27,0-4.51-.38-6.75-1.15-2.23-.77-4.31-1.85-6.25-3.25-1.93-1.4-3.66-3.1-5.2-5.1-1.53-2-2.7-4.26-3.5-6.8l11.49-5.9c.73,2.8,2.05,5.05,3.95,6.74,1.9,1.7,3.98,2.55,6.25,2.55,1.4,0,2.71-.27,3.95-.8,1.23-.53,2.3-1.25,3.2-2.15s1.61-1.96,2.15-3.2c.53-1.23,.8-2.55,.8-3.95,0-2.6-1.37-4.8-4.1-6.59-1.27-.93-2.57-1.76-3.9-2.5-1.33-.73-2.7-1.46-4.1-2.2-2.2-1.2-4.43-2.46-6.69-3.8-2.27-1.33-4.4-2.83-6.4-4.5-3.53-3.06-5.3-7.43-5.3-13.09,0-2.73,.58-5.2,1.75-7.39,1.16-2.2,2.75-4.08,4.75-5.65,2-1.56,4.31-2.76,6.94-3.6,2.63-.83,5.45-1.25,8.44-1.25,3.2,0,6.18,.35,8.94,1.05,2.76,.7,5.41,1.65,7.94,2.85V23.38Z"/>
  <path class="cls-1" d="M233.12,16.09v58.36h-12.89V16.09h-16.19V3.2h45.27v12.89h-16.19Z"/>
  <path class="cls-1" d="M110.05,92.31l10.99,45.87c1.86-5.46,3.68-10.78,5.45-15.94,1.76-5.16,3.58-10.48,5.45-15.94l6.1-17.59,16.99,49.46c1.73-7.66,3.56-15.35,5.5-23.08,1.93-7.73,3.76-15.32,5.5-22.78h13.29l-16.79,70.85h-12.49l-11.99-34.87c-1.93,5.73-3.93,11.56-6,17.49-2.07,5.93-4.06,11.73-6,17.39h-12.49l-16.79-70.85h13.29Z"/>
  <path class="cls-1" d="M205.67,92.31v70.85h-12.79V92.31h12.79Z"/>
  <path class="cls-1" d="M231.95,92.31v57.86h21.88v12.99h-34.67V92.31h12.79Z"/>
  <path class="cls-1" d="M277.42,92.31v57.86h21.88v12.99h-34.67V92.31h12.79Z"/>
  <path class="cls-1" d="M345.47,91.42c5,0,9.69,.95,14.09,2.85,4.4,1.9,8.24,4.5,11.54,7.79,3.3,3.3,5.9,7.16,7.79,11.59,1.9,4.43,2.85,9.14,2.85,14.14s-.93,9.66-2.8,13.99c-1.87,4.33-4.46,8.19-7.79,11.59-7.26,7.06-15.82,10.59-25.68,10.59s-18.72-3.53-25.78-10.59c-3.2-3.33-5.76-7.18-7.69-11.54-1.93-4.36-2.9-9.04-2.9-14.04s.95-9.71,2.85-14.14c1.9-4.43,4.5-8.29,7.79-11.59,3.3-3.3,7.16-5.9,11.59-7.79,4.43-1.9,9.14-2.85,14.14-2.85Zm16.59,19.79c-4.66-4.66-10.19-6.99-16.59-6.99s-11.93,2.33-16.59,6.99c-4.6,4.6-6.89,10.13-6.89,16.59,0,3.2,.61,6.21,1.85,9.04,1.23,2.83,2.9,5.31,5,7.44,2.1,2.13,4.58,3.81,7.44,5.05,2.86,1.23,5.93,1.85,9.19,1.85s6.23-.6,9.09-1.8c2.86-1.2,5.35-2.85,7.44-4.95s3.76-4.58,5-7.44c1.23-2.86,1.85-5.93,1.85-9.19,0-6.53-2.27-12.06-6.79-16.59Z"/>
  <path class="cls-1" d="M401.82,92.31l10.99,45.87c1.86-5.46,3.68-10.78,5.45-15.94,1.76-5.16,3.58-10.48,5.45-15.94l6.09-17.59,16.99,49.46c1.73-7.66,3.56-15.35,5.5-23.08,1.93-7.73,3.76-15.32,5.5-22.78h13.29l-16.79,70.85h-12.49l-11.99-34.87c-1.93,5.73-3.93,11.56-6,17.49-2.07,5.93-4.06,11.73-6,17.39h-12.49l-16.79-70.85h13.29Z"/>
  <path class="cls-1" d="M319.14,74.7l-3.88-5.09c-2.59,1.7-5.39,2.97-8.42,3.82-3.03,.85-6.4,1.27-10.12,1.27h-.48c-3.15,0-6.14-.61-8.97-1.82-2.83-1.21-5.31-2.85-7.45-4.91-2.14-2.06-3.84-4.42-5.09-7.09-1.25-2.67-1.88-5.49-1.88-8.48,0-2.67,.32-5.07,.97-7.21,.65-2.14,1.55-4.12,2.73-5.94,1.17-1.82,2.52-3.47,4.06-4.97,1.53-1.49,3.15-2.89,4.85-4.18-.32-.32-.61-.61-.85-.85s-.44-.52-.61-.85c-2.18-2.91-3.27-6.22-3.27-9.94,0-2.26,.46-4.4,1.39-6.42,.93-2.02,2.18-3.78,3.76-5.27,1.58-1.49,3.35-2.67,5.33-3.51,1.98-.85,4.06-1.27,6.24-1.27,2.67,.16,5.03,.81,7.09,1.94,2.06,1.13,3.8,2.51,5.21,4.12,1.41,1.62,2.46,3.35,3.15,5.21,.69,1.86,1.03,3.56,1.03,5.09,0,3.39-.95,6.24-2.85,8.54-1.9,2.3-4.22,4.42-6.97,6.36,.97,1.37,1.88,2.63,2.73,3.76,.85,1.13,1.7,2.24,2.55,3.33,.85,1.09,1.72,2.2,2.61,3.33,.89,1.13,1.9,2.42,3.03,3.88,.48-2.1,.87-4.52,1.15-7.27,.28-2.75,.42-5.49,.42-8.24h13.21c0,5.33-.44,10.36-1.33,15.09-.89,4.73-2.38,8.91-4.48,12.54,.81,1.13,1.74,2.36,2.79,3.7,1.05,1.33,2.1,2.67,3.15,4,1.05,1.33,2.08,2.65,3.09,3.94,1.01,1.29,1.88,2.42,2.6,3.39h-16.48Zm-25.94-34.06c-2.1,1.62-3.86,3.37-5.27,5.27-1.41,1.9-2.16,4.06-2.24,6.48,.16,2.59,1.33,4.77,3.52,6.55,2.18,1.78,4.64,2.67,7.39,2.67,4.44,0,8-.81,10.67-2.42l-14.06-18.54Zm3.03-17.82c1.37-.97,2.46-1.82,3.27-2.55,.81-.73,1.21-1.41,1.21-2.06s-.38-1.35-1.15-2.12c-.77-.77-1.6-1.15-2.48-1.15-.73,0-1.48,.35-2.24,1.03-.77,.69-1.15,1.52-1.15,2.48,0,.89,.24,1.58,.73,2.06l1.82,2.3Z"/>
</svg>